<?xml version="1.0" standalone="no"?><!DOCTYPE svg PUBLIC "-//W3C//DTD SVG 1.1//EN" "http://www.w3.org/Graphics/SVG/1.1/DTD/svg11.dtd"><svg t="1602300088554" class="icon" viewBox="0 0 1186 1024" version="1.1" xmlns="http://www.w3.org/2000/svg" p-id="3634" width="231.640625" height="200" xmlns:xlink="http://www.w3.org/1999/xlink"><defs><style type="text/css"></style></defs><path d="M243.432727 546.699636C111.150545 545.047273 2.839273 651.822545 1.047273 782.219636 2.839273 912.756364 111.150545 1019.392 243.432727 1017.786182c132.072727 1.605818 240.593455-105.053091 242.315637-235.613091 1.698909-130.56-108.520727-237.149091-242.385455-235.496727h0.069818z m1.722182 382.999273a149.806545 149.806545 0 0 1-152.599273-147.502545c-1.722182-83.013818 69.515636-149.154909 152.599273-147.432728a149.690182 149.690182 0 0 1 152.343273 147.432728c1.722182 83.083636-69.399273 147.502545-152.413091 147.502545h0.069818zM943.243636 546.676364a238.754909 238.754909 0 0 0-242.478545 235.52c1.768727 130.536727 110.219636 237.195636 240.779636 235.589818 133.818182 1.605818 242.292364-105.053091 244.014546-235.613091 1.675636-130.56-108.497455-237.149091-242.362182-235.496727h0.046545z m-1.768727 382.999272a149.806545 149.806545 0 0 1-152.529454-147.502545 149.806545 149.806545 0 0 1 152.599272-147.432727 150.155636 150.155636 0 0 1 154.135273 147.432727c-1.722182 81.361455-71.121455 147.502545-154.135273 147.502545h-0.069818zM865.536 111.336727c0 61.323636-48.174545 110.219636-110.336 111.802182a109.521455 109.521455 0 0 1-111.895273-110.219636c0-61.323636 48.244364-110.382545 110.289455-111.988364h1.605818a110.219636 110.219636 0 0 1 110.312727 110.405818z" fill="#62B5FF" p-id="3635"></path><path d="M524.660364 850.059636V633.018182l-162.676364-157.556364a65.419636 65.419636 0 0 1 0-91.461818l166.120727-162.653091a65.419636 65.419636 0 0 1 91.461818 0l118.69091 116.922182h167.68c35.677091 0 64.418909 28.672 64.418909 62.696727a64.418909 64.418909 0 0 1-64.418909 64.418909h-193.163637c-17.082182 0-33.512727-6.749091-45.754182-18.664727l-93.160727-89.832727-74.658909 72.750545a16764.276364 16764.276364 0 0 1 135.68 132.282182c11.915636 12.264727 18.618182 28.672 18.618182 45.800727V851.781818a64.395636 64.395636 0 0 1-64.418909 64.395637c-33.768727-1.768727-62.696727-30.580364-64.418909-66.117819z" fill="#62B5FF" p-id="3636"></path></svg>